<svg width="17" height="17" viewBox="0 0 17 17" fill="none" xmlns="http://www.w3.org/2000/svg">
<path fill-rule="evenodd" clip-rule="evenodd" d="M2.14974 3.69564H15.4831V4.87159L8.81641 8.20493L2.14974 4.87159V3.69564ZM0.816406 3.69564C0.816406 2.95926 1.41336 2.3623 2.14974 2.3623H15.4831C16.2195 2.3623 16.8164 2.95926 16.8164 3.69564V5.69564V12.3623C16.8164 13.4669 15.921 14.3623 14.8164 14.3623H2.81641C1.71184 14.3623 0.816406 13.4669 0.816406 12.3623V5.69564V3.69564ZM2.14974 6.3623V12.3623C2.14974 12.7305 2.44822 13.029 2.81641 13.029H14.8164C15.1846 13.029 15.4831 12.7305 15.4831 12.3623V6.3623L8.81641 9.69564L2.14974 6.3623Z" fill="#F5841F"/>
</svg>
