<svg width="19" height="19" viewBox="0 0 19 19" fill="none" xmlns="http://www.w3.org/2000/svg">
<path d="M12.3164 6.86182C13.5099 6.86182 14.6545 7.33592 15.4984 8.17984C16.3423 9.02375 16.8164 10.1683 16.8164 11.3618V16.6118H13.8164V11.3618C13.8164 10.964 13.6584 10.5825 13.3771 10.3012C13.0958 10.0199 12.7142 9.86182 12.3164 9.86182C11.9186 9.86182 11.5371 10.0199 11.2557 10.3012C10.9744 10.5825 10.8164 10.964 10.8164 11.3618V16.6118H7.81641V11.3618C7.81641 10.1683 8.29051 9.02375 9.13443 8.17984C9.97834 7.33592 11.1229 6.86182 12.3164 6.86182V6.86182Z" stroke="#F5841F" stroke-width="1.2" stroke-linecap="round" stroke-linejoin="round"/>
<path d="M4.81641 7.61182H1.81641V16.6118H4.81641V7.61182Z" stroke="#F5841F" stroke-width="1.2" stroke-linecap="round" stroke-linejoin="round"/>
<path d="M3.31641 5.36182C4.14483 5.36182 4.81641 4.69024 4.81641 3.86182C4.81641 3.03339 4.14483 2.36182 3.31641 2.36182C2.48798 2.36182 1.81641 3.03339 1.81641 3.86182C1.81641 4.69024 2.48798 5.36182 3.31641 5.36182Z" stroke="#F5841F" stroke-width="1.2" stroke-linecap="round" stroke-linejoin="round"/>
</svg>
