<svg width="22" height="22" viewBox="0 0 22 22" fill="none" xmlns="http://www.w3.org/2000/svg">
<path fill-rule="evenodd" clip-rule="evenodd" d="M5.27871 2.61293C5.96198 1.9291 7.07027 1.92879 7.75392 2.61224L10.9851 5.84246C11.6685 6.52565 11.6688 7.63343 10.9858 8.317L9.8405 9.46321L13.563 13.1851L14.7075 12.0397C15.3908 11.3558 16.4991 11.3555 17.1827 12.039L20.0664 14.9218C20.7498 15.605 20.7501 16.7128 20.0671 17.3964L18.1595 19.3056C17.041 20.425 15.3192 20.6748 13.9286 19.9194C9.2059 17.3538 5.3264 13.4748 2.75959 8.75281C2.00413 7.36304 2.25264 5.6415 3.37085 4.52237L5.27871 2.61293ZM9.74781 7.08008L6.51666 3.84985L4.6088 5.75929C4.03861 6.32996 3.91173 7.20807 4.29711 7.91703C6.70259 12.3422 10.3383 15.9774 14.764 18.3817C15.4731 18.7669 16.3512 18.6395 16.9216 18.0686L18.8292 16.1595L15.9455 13.2766L13.5636 15.6604L7.36604 9.46382L9.74781 7.08008Z" fill="#F5841F"/>
</svg>
