<svg width="19" height="19" viewBox="0 0 19 19" fill="none" xmlns="http://www.w3.org/2000/svg">
<g clip-path="url(#clip0_144_338)">
<path d="M17.2213 5.67682C17.1323 5.32087 16.9508 4.99475 16.6953 4.73137C16.4399 4.468 16.1194 4.2767 15.7663 4.17682C14.4763 3.86182 9.31635 3.86182 9.31635 3.86182C9.31635 3.86182 4.15635 3.86182 2.86635 4.20682C2.51328 4.3067 2.19283 4.498 1.93736 4.76137C1.68188 5.02475 1.50044 5.35087 1.41135 5.70682C1.17526 7.01598 1.05977 8.34405 1.06635 9.67432C1.05793 11.0146 1.17342 12.3528 1.41135 13.6718C1.50957 14.0167 1.69508 14.3304 1.94995 14.5827C2.20483 14.8349 2.52046 15.0172 2.86635 15.1118C4.15635 15.4568 9.31635 15.4568 9.31635 15.4568C9.31635 15.4568 14.4763 15.4568 15.7663 15.1118C16.1194 15.0119 16.4399 14.8206 16.6953 14.5573C16.9508 14.2939 17.1323 13.9678 17.2213 13.6118C17.4556 12.3125 17.5711 10.9946 17.5663 9.67432C17.5748 8.33403 17.4593 6.99584 17.2213 5.67682V5.67682Z" stroke="#F5841F" stroke-width="1.2" stroke-linecap="round" stroke-linejoin="round"/>
<path d="M7.62891 12.1269L11.9414 9.67442L7.62891 7.22192V12.1269Z" stroke="#F5841F" stroke-width="1.2" stroke-linecap="round" stroke-linejoin="round"/>
</g>
<defs>
<clipPath id="clip0_144_338">
<rect width="18" height="18" fill="white" transform="translate(0.316406 0.861816)"/>
</clipPath>
</defs>
</svg>
