<svg width="32" height="38" viewBox="0 0 32 38" fill="none" xmlns="http://www.w3.org/2000/svg">
<path d="M31.3541 12.8263C29.4729 4.41875 22.2525 0.633545 15.91 0.633545H15.892C9.56746 0.633545 2.32913 4.40055 0.447878 12.8081C-1.64837 22.1983 4.01329 30.1508 9.13746 35.1553C10.9537 36.9409 13.3823 37.9393 15.91 37.9396C18.3466 37.9396 20.7833 37.0115 22.6645 35.1553C27.7887 30.1508 33.4504 22.2165 31.3541 12.8263ZM15.91 21.9435C15.1688 21.9435 14.4349 21.7952 13.7502 21.5071C13.0655 21.2191 12.4433 20.7968 11.9192 20.2645C11.3952 19.7322 10.9794 19.1003 10.6958 18.4048C10.4122 17.7093 10.2662 16.9639 10.2662 16.2111C10.2662 15.4583 10.4122 14.7129 10.6958 14.0174C10.9794 13.3219 11.3952 12.69 11.9192 12.1577C12.4433 11.6254 13.0655 11.2031 13.7502 10.9151C14.4349 10.627 15.1688 10.4787 15.91 10.4787C17.4068 10.4787 18.8423 11.0827 19.9007 12.1577C20.9591 13.2327 21.5537 14.6908 21.5537 16.2111C21.5537 17.7314 20.9591 19.1895 19.9007 20.2645C18.8423 21.3395 17.4068 21.9435 15.91 21.9435Z" fill="#F5841F"/>
</svg>
