<svg width="36" height="32" viewBox="0 0 36 32" fill="none" xmlns="http://www.w3.org/2000/svg">
<path d="M26.875 0.7854H8.95833C3.58333 0.7854 0 3.51511 0 9.88444V22.6231C0 28.9924 3.58333 31.7221 8.95833 31.7221H26.875C32.25 31.7221 35.8333 28.9924 35.8333 22.6231V9.88444C35.8333 3.51511 32.25 0.7854 26.875 0.7854ZM27.7171 11.868L22.1092 16.4176C20.9267 17.382 19.4217 17.8552 17.9167 17.8552C16.4117 17.8552 14.8887 17.382 13.7242 16.4176L8.11625 11.868C7.84213 11.6369 7.66666 11.307 7.62659 10.9475C7.58651 10.5879 7.68493 10.2266 7.90125 9.93903C8.36708 9.3567 9.20917 9.24751 9.7825 9.72066L15.3904 14.2702C16.7521 15.3803 19.0633 15.3803 20.425 14.2702L26.0329 9.72066C26.6063 9.24751 27.4662 9.3385 27.9142 9.93903C28.38 10.5214 28.2904 11.3949 27.7171 11.868Z" fill="#F5841F"/>
</svg>
