<svg width="36" height="38" viewBox="0 0 36 38" fill="none" xmlns="http://www.w3.org/2000/svg">
<path d="M16.2146 24.4252L12.9 27.7918C12.2013 28.5015 11.0904 28.5015 10.3738 27.81C10.1767 27.6098 9.97958 27.4278 9.7825 27.2277C7.97071 25.3751 6.29968 23.3858 4.78375 21.2769C3.31458 19.2023 2.13208 17.1277 1.27208 15.0713C0.43 12.9968 0 11.0132 0 9.12057C0 7.8831 0.215 6.70023 0.645 5.60834C1.075 4.49826 1.75583 3.47917 2.70542 2.56926C3.85208 1.42278 5.10625 0.858643 6.43208 0.858643C6.93375 0.858643 7.43542 0.967831 7.88333 1.18621C8.34917 1.40459 8.76125 1.73215 9.08375 2.2053L13.2404 8.15607C13.5629 8.61103 13.7958 9.02958 13.9571 9.42994C14.1183 9.8121 14.2079 10.1943 14.2079 10.54C14.2079 10.9768 14.0825 11.4135 13.8317 11.8321C13.5988 12.2506 13.2583 12.6874 12.8283 13.1241L11.4667 14.5618C11.2696 14.762 11.18 14.9986 11.18 15.2897C11.18 15.4353 11.1979 15.5627 11.2338 15.7083C11.2875 15.8539 11.3413 15.963 11.3771 16.0722C11.6996 16.6728 12.255 17.4553 13.0433 18.4016C13.8496 19.3479 14.7096 20.3124 15.6412 21.2769C15.8204 21.4589 16.0175 21.6409 16.1967 21.8228C16.9133 22.5326 16.9313 23.6972 16.2146 24.4252ZM35.7796 30.5761C35.7772 31.2629 35.6242 31.9405 35.3317 32.5597C35.0271 33.2148 34.6329 33.8336 34.1133 34.4159C33.2354 35.3986 32.2679 36.1083 31.175 36.5633C31.1571 36.5633 31.1392 36.5815 31.1213 36.5815C30.0642 37.0182 28.9175 37.2548 27.6813 37.2548C25.8538 37.2548 23.9008 36.8181 21.8404 35.9263C19.78 35.0346 17.7196 33.8336 15.6771 32.3231C14.9783 31.7954 14.2796 31.2676 13.6167 30.7035L19.4754 24.7527C19.9771 25.1349 20.425 25.4261 20.8013 25.6262C20.8908 25.6626 20.9983 25.7172 21.1238 25.7718C21.2671 25.8264 21.4104 25.8446 21.5717 25.8446C21.8763 25.8446 22.1092 25.7354 22.3063 25.5352L23.6679 24.1704C24.1158 23.7154 24.5458 23.3697 24.9579 23.1513C25.37 22.8965 25.7821 22.7691 26.23 22.7691C26.5704 22.7691 26.9288 22.8419 27.3229 23.0057C27.7171 23.1695 28.1292 23.4061 28.5771 23.7154L34.5075 27.992C34.9733 28.3195 35.2958 28.7017 35.4929 29.1567C35.6721 29.6116 35.7796 30.0666 35.7796 30.5761Z" fill="#F5841F"/>
</svg>
