<svg width="36" height="32" viewBox="0 0 36 32" fill="none" xmlns="http://www.w3.org/2000/svg">
<path d="M35.8333 8.12813C35.8333 9.3292 34.8658 10.3119 33.6833 10.3119H2.15C0.9675 10.3119 0 9.3292 0 8.12813V8.10993C0 3.94257 3.31458 0.575928 7.4175 0.575928H28.3979C32.5008 0.575928 35.8333 3.96077 35.8333 8.12813ZM0 15.229V24.3463C0 28.5136 3.31458 31.8803 7.4175 31.8803H28.3979C32.5008 31.8803 35.8333 28.4954 35.8333 24.3281V15.229C35.8333 14.0279 34.8658 13.0453 33.6833 13.0453H2.15C0.9675 13.0453 0 14.0279 0 15.229ZM10.75 25.7839H7.16667C6.43208 25.7839 5.82292 25.1652 5.82292 24.4191C5.82292 23.6729 6.43208 23.0542 7.16667 23.0542H10.75C11.4846 23.0542 12.0938 23.6729 12.0938 24.4191C12.0938 25.1652 11.4846 25.7839 10.75 25.7839ZM22.3958 25.7839H15.2292C14.4946 25.7839 13.8854 25.1652 13.8854 24.4191C13.8854 23.6729 14.4946 23.0542 15.2292 23.0542H22.3958C23.1304 23.0542 23.7396 23.6729 23.7396 24.4191C23.7396 25.1652 23.1304 25.7839 22.3958 25.7839Z" fill="#F5841F"/>
</svg>
