<svg width="140" height="140" viewBox="0 0 140 140" fill="none" xmlns="http://www.w3.org/2000/svg">
<circle cx="70" cy="70" r="70" fill="#16213C"/>
<g clip-path="url(#clip0_354_154)">
<path d="M74.25 65C74.25 60.875 70.875 57.5 66.75 57.5C62.625 57.5 59.25 60.875 59.25 65C59.25 69.125 62.625 72.5 66.75 72.5C70.875 72.5 74.25 69.125 74.25 65ZM66.75 67.5C65.375 67.5 64.25 66.375 64.25 65C64.25 63.625 65.375 62.5 66.75 62.5C68.125 62.5 69.25 63.625 69.25 65C69.25 66.375 68.125 67.5 66.75 67.5ZM83 72.5C85.775 72.5 88 70.275 88 67.5C88 64.725 85.775 62.5 83 62.5C80.225 62.5 77.975 64.725 78 67.5C78 70.275 80.225 72.5 83 72.5ZM72.975 45.025C59.175 45.025 47.975 56.225 47.975 70.025C47.975 83.825 59.175 95.025 72.975 95.025C86.775 95.025 97.975 83.825 97.975 70.025C97.975 56.225 86.775 45.025 72.975 45.025ZM57.6 82.8C59.3 81.45 63.275 80.025 66.75 80.025C66.925 80.025 67.125 80.05 67.325 80.05C67.925 78.45 69 76.825 70.575 75.4C69.3136 75.1584 68.034 75.0246 66.75 75C63.5 75 58.275 76.125 54.925 78.575C53.675 75.975 52.975 73.075 52.975 70C52.975 58.975 61.95 50 72.975 50C84 50 92.975 58.975 92.975 70C92.975 73 92.3 75.85 91.1 78.425C88.6 76.95 85.2 76.25 83 76.25C79.2 76.25 71.75 78.275 71.75 83V89.95C69.0265 89.7952 66.3643 89.0803 63.9297 87.85C61.495 86.6198 59.3402 84.9007 57.6 82.8Z" fill="#8ECAE6"/>
</g>
<defs>
<clipPath id="clip0_354_154">
<rect width="60" height="60" fill="white" transform="translate(43 40)"/>
</clipPath>
</defs>
</svg>
